HIERARCHY
ROOT Hips
{
	OFFSET 0.000000 0.000000 0.000000
	CHANNELS 6 Xposition Yposition Zposition Zrotation Yrotation Xrotation 
	JOINT LHipJoint
	{
		OFFSET 0.000000 0.000000 0.000000
		CHANNELS 3 Zrotation Yrotation Xrotation
		JOINT LeftUpLeg
		{
			OFFSET 1.363060 -1.794630 0.839290
			CHANNELS 3 Zrotation Yrotation Xrotation
			JOINT LeftLeg
			{
				OFFSET 2.448110 -6.726130 0.000000
				CHANNELS 3 Zrotation Yrotation Xrotation
				JOINT LeftFoot
				{
					OFFSET 2.562200 -7.039590 0.000000
					CHANNELS 3 Zrotation Yrotation Xrotation
					JOINT LeftToeBase
					{
						OFFSET 0.157640 -0.433110 2.322550
						CHANNELS 3 Zrotation Yrotation Xrotation
						End Site
						{
							OFFSET 0.000000 0.000000 0.000000
						}
					}
				}
			}
		}
	}
	JOINT RHipJoint
	{
		OFFSET 0.000000 0.000000 0.000000
		CHANNELS 3 Zrotation Yrotation Xrotation
		JOINT RightUpLeg
		{
			OFFSET -1.305520 -1.794630 0.839290
			CHANNELS 3 Zrotation Yrotation Xrotation
			JOINT RightLeg
			{
				OFFSET -2.542530 -6.985550 0.000000
				CHANNELS 3 Zrotation Yrotation Xrotation
				JOINT RightFoot
				{
					OFFSET -2.568260 -7.056230 0.000000
					CHANNELS 3 Zrotation Yrotation Xrotation
					JOINT RightToeBase
					{
						OFFSET -0.164730 -0.452590 2.363150
						CHANNELS 3 Zrotation Yrotation Xrotation
						End Site
						{
							OFFSET 0.000000 0.000000 0.000000
						}
					}
				}
			}
		}
	}
	JOINT LowerBack
	{
		OFFSET 0.000000 0.000000 0.000000
		CHANNELS 3 Zrotation Yrotation Xrotation
		JOINT Spine
		{
			OFFSET 0.028270 2.035590 -0.193380
			CHANNELS 3 Zrotation Yrotation Xrotation
			JOINT Spine1
			{
				OFFSET 0.056720 2.048850 -0.042750
				CHANNELS 3 Zrotation Yrotation Xrotation
				JOINT Neck
				{
					OFFSET 0.000000 0.000000 0.000000
					CHANNELS 3 Zrotation Yrotation Xrotation
					JOINT Neck1
					{
						OFFSET -0.054170 1.746240 0.172020
						CHANNELS 3 Zrotation Yrotation Xrotation
						JOINT Head
						{
							OFFSET 0.104070 1.761360 -0.123970
							CHANNELS 3 Zrotation Yrotation Xrotation
							End Site
							{
								OFFSET 0.000000 0.000000 0.000000
							}
						}
					}
				}
				JOINT LeftShoulder
				{
					OFFSET 0.000000 0.000000 0.000000
					CHANNELS 3 Zrotation Yrotation Xrotation
					JOINT LeftArm
					{
						OFFSET 3.362410 1.200890 -0.311210
						CHANNELS 3 Zrotation Yrotation Xrotation
						JOINT LeftForeArm
						{
							OFFSET 4.983000 -0.000000 -0.000000
							CHANNELS 3 Zrotation Yrotation Xrotation
							JOINT LeftHand
							{
								OFFSET 3.483560 -0.000000 -0.000000
								CHANNELS 3 Zrotation Yrotation Xrotation
								JOINT LeftFingerBase
								{
									OFFSET 0.000000 0.000000 0.000000
									CHANNELS 3 Zrotation Yrotation Xrotation
									JOINT LeftHandIndex1
									{
										OFFSET 0.715260 -0.000000 -0.000000
										CHANNELS 3 Zrotation Yrotation Xrotation
										End Site
										{
											OFFSET 0.000000 0.000000 0.000000
										}
									}
								}
								JOINT LThumb
								{
									OFFSET 0.000000 0.000000 0.000000
									CHANNELS 3 Zrotation Yrotation Xrotation
									End Site
									{
										OFFSET 0.000000 0.000000 0.000000
									}
								}
							}
						}
					}
				}
				JOINT RightShoulder
				{
					OFFSET 0.000000 0.000000 0.000000
					CHANNELS 3 Zrotation Yrotation Xrotation
					JOINT RightArm
					{
						OFFSET -3.136600 1.374050 -0.404650
						CHANNELS 3 Zrotation Yrotation Xrotation
						JOINT RightForeArm
						{
							OFFSET -5.241900 -0.000000 -0.000000
							CHANNELS 3 Zrotation Yrotation Xrotation
							JOINT RightHand
							{
								OFFSET -3.444170 -0.000000 -0.000000
								CHANNELS 3 Zrotation Yrotation Xrotation
								JOINT RightFingerBase
								{
									OFFSET 0.000000 0.000000 0.000000
									CHANNELS 3 Zrotation Yrotation Xrotation
									JOINT RightHandIndex1
									{
										OFFSET -0.622530 -0.000000 -0.000000
										CHANNELS 3 Zrotation Yrotation Xrotation
										End Site
										{
											OFFSET 0.000000 0.000000 0.000000
										}
									}
								}
								JOINT RThumb
								{
									OFFSET 0.000000 0.000000 0.000000
									CHANNELS 3 Zrotation Yrotation Xrotation
									End Site
									{
										OFFSET 0.000000 0.000000 0.000000
									}
								}
							}
						}
					}
				}
			}
		}
	}
}
MOTION
Frames: 7
Frame Time: 0.008333
3.469034 17.202881 0.881534 -97.277971 -88.766247 109.005909 -10.828404 1.369417 0.965320 -3.145721 15.577159 -15.934166 -2.565759 -1.303707 -2.944387 0.153973 1.940664 4.038068 0.631100 -0.000000 -37.426201 9.936388 -1.789351 2.313940 4.201904 -3.752724 -11.460944 2.220416 1.346776 -0.341067 -0.367839 -7.161329 -1.992753 -2.298700 0.000000 -42.881700 1.580461 -3.811788 -4.273630 0.399768 -3.991278 -3.579578 -4.685901 -3.902152 -0.592457 7.730792 -9.937531 -2.565563 -4.256711 -0.374721 1.416324 0.000000 0.000000 0.000000 12.893929 4.294996 -1.632225 -91.451728 -5.640514 18.135511 179.825629 -46.367553 179.938977 2.876293 -8.772846 -0.234959 0.104595 1.201658 -0.000000 0.000000 0.000000 0.000000 0.000000 0.000000 0.000000 2.460103 -7.659567 -3.905184 85.142919 24.141222 31.590432 -179.936390 61.385159 179.857718 -12.618100 13.714782 -1.682115 0.317563 -1.070933 -0.000000 0.000000 0.000000 0.000000 0.000000 0.000000 0.000000 
3.473470 17.203327 0.881877 -60.973990 -89.587361 72.706672 -11.460213 1.277418 1.035275 -3.395492 15.266045 -16.026026 -2.530900 -1.293069 -2.887806 0.152888 1.914866 4.062778 0.625000 -0.000000 -37.405400 9.326618 -1.895586 2.266494 3.941407 -3.933231 -11.455200 2.239962 1.360285 -0.290992 -0.372655 -7.289925 -2.062269 -2.338300 0.000000 -42.903100 0.760755 -3.872747 -4.319111 0.294162 -3.974466 -3.603549 -4.612110 -3.903729 -0.696852 7.668449 -9.623180 -2.356162 -4.256986 -0.376729 1.472453 0.000000 0.000000 0.000000 12.893639 4.193251 -1.615015 -91.409527 -5.754949 18.271592 179.810262 -46.469501 179.938745 2.846807 -8.757239 -0.231915 0.108128 1.202155 -0.000000 0.000000 0.000000 0.000000 0.000000 0.000000 0.000000 2.474555 -7.370852 -3.934289 84.817749 24.687349 31.107112 -179.906115 61.647567 179.854814 -12.872269 13.560262 -1.697006 0.321712 -1.063562 -0.000000 0.000000 0.000000 0.000000 0.000000 0.000000 0.000000 
3.477684 17.203420 0.884551 160.242442 -89.885050 -148.483535 -11.892870 1.670993 1.482242 -3.363829 14.226090 -16.441634 -2.413715 -1.074358 -2.694783 0.259546 2.154478 3.823806 0.622401 0.000000 -37.347900 8.880021 -1.499480 1.844498 4.047560 -5.055881 -11.420977 2.352604 1.568728 -0.000608 -0.233987 -6.924073 -2.019686 -2.319500 -0.000000 -42.928900 0.362576 -3.693605 -4.386044 0.190615 -3.751639 -3.646378 -4.537763 -3.689187 -0.791529 7.575134 -9.272477 -2.158261 -4.251751 -0.377709 1.529711 0.000000 0.000000 0.000000 12.858613 4.239235 -1.588682 -91.412610 -5.893856 18.447368 179.771497 -46.595117 179.938455 2.813468 -8.744747 -0.228425 0.113215 1.202332 0.000000 0.000000 0.000000 0.000000 0.000000 0.000000 0.000000 2.451243 -6.927838 -3.983712 84.423998 25.344456 30.569184 -179.896456 61.940450 179.852416 -13.117034 13.408503 -1.710207 0.326539 -1.055544 -0.000000 0.000000 0.000000 0.000000 0.000000 0.000000 0.000000 
3.482072 17.203996 0.884508 -16.724331 -89.946174 28.485477 -11.840506 1.717435 1.555764 -3.337482 14.001579 -16.562961 -2.408794 -1.057758 -2.594449 0.259724 2.107558 3.806333 0.611900 -0.000000 -37.322400 8.923943 -1.465666 1.820368 4.089472 -5.184372 -11.424725 2.346863 1.585713 0.022846 -0.232869 -7.033696 -2.031761 -2.351700 0.000000 -42.938900 0.373626 -3.581235 -4.442027 0.181220 -3.638336 -3.684834 -4.483640 -3.575814 -0.920039 7.487710 -8.893115 -1.905585 -4.250079 -0.379612 1.598114 0.000000 0.000000 0.000000 12.818852 4.179801 -1.561880 -91.369475 -6.036922 18.613322 179.755015 -46.732273 179.938467 2.775638 -8.730840 -0.224519 0.116977 1.203130 0.000000 0.000000 0.000000 0.000000 0.000000 0.000000 0.000000 2.454443 -6.511711 -4.023664 83.975813 26.076447 29.982155 -179.869822 62.298646 179.849519 -13.352066 13.240440 -1.719181 0.328460 -1.046615 -0.000000 0.000000 0.000000 0.000000 0.000000 0.000000 0.000000 
3.486607 17.204691 0.884047 -14.409987 -89.743806 26.165918 -11.785468 1.752258 1.627865 -3.307469 13.751001 -16.653595 -2.401764 -1.049240 -2.514751 0.260513 2.092393 3.804144 0.609500 -0.000000 -37.294500 8.971946 -1.447752 1.801231 4.126524 -5.326866 -11.420868 2.341138 1.596764 0.027528 -0.235287 -7.130405 -2.036589 -2.377500 0.000000 -42.948100 0.374261 -3.468218 -4.501864 0.172408 -3.523246 -3.726329 -4.417555 -3.460891 -1.061363 7.389160 -8.497088 -1.629284 -4.248297 -0.381740 1.672893 0.000000 0.000000 0.000000 12.764756 4.082090 -1.535489 -91.312949 -6.184862 18.780137 179.734740 -46.875195 179.938417 2.738653 -8.714458 -0.220725 0.120990 1.203803 0.000000 0.000000 0.000000 0.000000 0.000000 0.000000 0.000000 2.472255 -6.080245 -4.059460 83.460764 26.923426 29.349372 -179.848031 62.734898 179.846909 -13.562225 13.041028 -1.720076 0.329045 -1.036145 -0.000000 0.000000 0.000000 0.000000 0.000000 0.000000 0.000000 
3.491301 17.205385 0.883269 -12.659832 -89.515843 24.403629 -11.733086 1.776566 1.693860 -3.282013 13.526954 -16.751297 -2.398391 -1.045541 -2.416881 0.256947 2.054963 3.801152 0.603700 -0.000000 -37.266300 9.018059 -1.445081 1.791807 4.163663 -5.472522 -11.416325 2.336118 1.604286 0.017208 -0.240937 -7.221899 -2.037245 -2.399700 -0.000000 -42.952000 0.365972 -3.349120 -4.568693 0.163702 -3.401120 -3.770358 -4.341681 -3.338932 -1.209315 7.277870 -8.071809 -1.335998 -4.242982 -0.383775 1.752176 0.000000 0.000000 0.000000 12.688858 3.990955 -1.511906 -91.240313 -6.379738 18.975001 179.719451 -47.055945 179.938312 2.710215 -8.695791 -0.217634 0.124154 1.204563 0.000000 0.000000 0.000000 0.000000 0.000000 0.000000 0.000000 2.491533 -5.618610 -4.095018 82.879837 27.866292 28.645116 -179.825106 63.252950 179.844699 -13.724823 12.810848 -1.709899 0.326904 -1.023990 -0.000000 0.000000 0.000000 0.000000 0.000000 0.000000 0.000000 
3.496288 17.206130 0.882067 -11.196059 -89.277207 22.918248 -11.681718 1.795690 1.757749 -3.256695 13.295024 -16.822582 -2.393901 -1.046142 -2.337460 0.253988 2.037750 3.810865 0.603000 -0.000000 -37.236600 9.064863 -1.451014 1.784477 4.194027 -5.626588 -11.402874 2.331228 1.608466 -0.002955 -0.247945 -7.299266 -2.032647 -2.416699 0.000000 -42.954100 0.343997 -3.223069 -4.636442 0.154621 -3.270435 -3.817618 -4.249164 -3.208629 -1.371569 7.150894 -7.642051 -1.024860 -4.238385 -0.386066 1.836379 0.000000 0.000000 0.000000 12.595985 3.844130 -1.489929 -91.156468 -6.563997 19.152649 179.694778 -47.227215 179.938051 2.686962 -8.670368 -0.214860 0.127712 1.204777 -0.000000 0.000000 0.000000 0.000000 0.000000 0.000000 0.000000 2.535273 -5.145824 -4.117749 82.209129 28.946584 27.896925 -179.809607 63.889011 179.843047 -13.846717 12.519634 -1.686046 0.323034 -1.009234 -0.000000 0.000000 0.000000 0.000000 0.000000 0.000000 0.000000 
